<svg width="60" height="60" viewBox="0 0 60 60" fill="none" xmlns="http://www.w3.org/2000/svg">
<path d="M8.02588 49.0825H14.039V52.0346C14.039 52.5869 13.5913 53.0346 13.039 53.0346H9.02588C8.47359 53.0346 8.02588 52.5869 8.02588 52.0346V49.0825Z" fill="#1D2959"/>
<path d="M45.2089 49.0825H51.222V52.0346C51.222 52.5869 50.7743 53.0346 50.222 53.0346H46.2089C45.6566 53.0346 45.2089 52.5869 45.2089 52.0346V49.0825Z" fill="#1D2959"/>
<path fill-rule="evenodd" clip-rule="evenodd" d="M32.8201 10.4977C31.6471 10.0402 30.3659 9.67305 29.4363 9.69115C28.5611 9.7082 27.3626 10.0787 26.2692 10.5245C25.657 10.7741 25.0527 11.0493 24.47 11.3605L24.4662 11.3626C23.7768 11.737 22.9091 11.4913 22.5281 10.8134C22.1472 10.1355 22.3972 9.28217 23.0866 8.90751C23.2874 8.79987 23.4909 8.69709 23.6957 8.597C24.064 8.41696 24.5809 8.17631 25.1769 7.93333C26.3199 7.46734 27.9372 7.02954 29.3798 7.00144C30.915 6.97154 32.6473 7.41272 33.8716 7.89028C34.6355 8.18822 35.3886 8.51746 36.1125 8.90085L36.1134 8.90133C36.8062 9.26973 37.0642 10.1207 36.6896 10.8021C36.3171 11.4796 35.4391 11.7284 34.7525 11.3665C34.577 11.2749 34.3989 11.1878 34.22 11.1029C33.8702 10.9369 33.3801 10.7161 32.8201 10.4977Z" fill="#8A4A38"/>
<path fill-rule="evenodd" clip-rule="evenodd" d="M23.2686 8.72656C22.6289 8.72656 22.1104 9.24512 22.1104 9.88479V10.5913C22.1104 11.1243 22.5425 11.5564 23.0755 11.5564H23.1016V15.2078H24.1123V11.5303H23.8629C24.5143 11.4035 25.0059 10.8299 25.0059 10.1415C25.0059 9.36005 24.3724 8.72656 23.591 8.72656H23.2686Z" fill="#F6EF3E"/>
<path fill-rule="evenodd" clip-rule="evenodd" d="M35.943 8.72656C36.5826 8.72656 37.1012 9.24512 37.1012 9.88479V10.5913C37.1012 11.1243 36.6691 11.5564 36.136 11.5564H36.1099V15.2078H35.0993V11.5303H35.3486C34.6973 11.4035 34.2056 10.8299 34.2056 10.1415C34.2056 9.36005 34.8391 8.72656 35.6205 8.72656H35.943Z" fill="#F6EF3E"/>
<path d="M4 23.7622C4 18.7916 8.02944 14.7622 13 14.7622H46.2528C51.2234 14.7622 55.2529 18.7916 55.2529 23.7622V49.0823H4V23.7622Z" fill="#8A4A38"/>
<ellipse cx="12.0533" cy="40.2468" rx="5.02106" ry="4.90602" fill="#EF9A9A"/>
<ellipse cx="4.809" cy="9.25666" rx="4.809" ry="9.25666" transform="matrix(0.705105 -0.709103 0.725462 0.688263 33.3711 37.4546)" fill="#93C6EB"/>
<rect width="16.3938" height="9.13788" transform="matrix(0.693231 -0.720716 0.736768 0.676145 23.7542 28.3154)" fill="#C2DEA3"/>
<rect width="8.33475" height="6.2458" rx="1" transform="matrix(0.73793 0.674877 -0.691986 0.721911 14.5845 20.2607)" fill="#C49A6C"/>
<rect x="14.0393" y="30.0498" width="7.06842" height="19.9996" fill="#F57B20"/>
<path d="M14.0393 13.4688H21.1078V30.7639C21.1078 32.7056 19.5153 34.2797 17.5735 34.2797V34.2797C15.6318 34.2797 14.0393 32.7056 14.0393 30.7639V13.4688Z" fill="#F6A725"/>
<rect x="13.0596" y="28.478" width="9.03459" height="1.96354" fill="#F6EF3E"/>
<rect x="38.1519" y="30.0498" width="7.06842" height="19.9996" fill="#F57B20"/>
<path d="M38.1519 13.4688H45.2203V30.7639C45.2203 32.7056 43.6279 34.2797 41.6861 34.2797V34.2797C39.7443 34.2797 38.1519 32.7056 38.1519 30.7639V13.4688Z" fill="#F6A725"/>
<rect x="37.1721" y="28.478" width="9.03459" height="1.96354" fill="#F6EF3E"/>
</svg>
